# xmcd
#
# Track frame offsets:
#	150
#	25868
#	38549
#	58899
#	81299
#	103135
#	128389
#	161732
#	183669
#	209878
#	229988
#	255872
#	271594
#	306880
#
# Disc length: 4459 seconds
#
# Revision: 3
# Processed by: cddbd v1.5.2PL0 Copyright (c) Steve Scherf et al.
# Submitted via: audiograbber 1.83.01
#
DISCID=bc11690e
DTITLE=Dan Brown - Das verlorene Symbol CD1
DYEAR=2009
DGENRE=Hörbuch
TTITLE0=Dan Brown - 101
TTITLE1=Dan Brown - 102
TTITLE2=Dan Brown - 103
TTITLE3=Dan Brown - 104
TTITLE4=Dan Brown - 105
TTITLE5=Dan Brown - 106
TTITLE6=Dan Brown - 107
TTITLE7=Dan Brown - 108
TTITLE8=Dan Brown - 109
TTITLE9=Dan Brown - 110
TTITLE10=Dan Brown - 111
TTITLE11=Dan Brown - 112
TTITLE12=Dan Brown - 113
TTITLE13=Dan Brown - 114
EXTD=YEAR: 2009
EXTT0=
EXTT1=
EXTT2=
EXTT3=
EXTT4=
EXTT5=
EXTT6=
EXTT7=
EXTT8=
EXTT9=
EXTT10=
EXTT11=
EXTT12=
EXTT13=
PLAYORDER=
